<mxfile host="app.diagrams.net" agent="Mozilla/5.0 (Windows NT 10.0; Win64; x64) AppleWebKit/537.36 (KHTML, like Gecko) Chrome/129.0.0.0 Safari/537.36" version="24.8.0">
  <diagram name="Page-1" id="vOh5TNNyOhth_K3gHbft">
    <mxGraphModel dx="1232" dy="1097" grid="1" gridSize="10" guides="1" tooltips="1" connect="1" arrows="1" fold="1" page="1" pageScale="1" pageWidth="850" pageHeight="1100" math="0" shadow="0">
      <root>
        <mxCell id="0" />
        <mxCell id="1" parent="0" />
        <mxCell id="mBunoje7Lh60PfE4Df9u-1" value="" style="strokeWidth=1;shadow=0;dashed=0;align=center;html=1;shape=mxgraph.mockup.containers.browserWindow;rSize=0;strokeColor=#666666;strokeColor2=#008cff;strokeColor3=#c4c4c4;mainText=,;recursiveResize=0;" vertex="1" parent="1">
          <mxGeometry x="40" y="120" width="760" height="940" as="geometry" />
        </mxCell>
        <mxCell id="mBunoje7Lh60PfE4Df9u-2" value="DineScout" style="strokeWidth=1;shadow=0;dashed=0;align=center;html=1;shape=mxgraph.mockup.containers.anchor;fontSize=17;fontColor=#666666;align=left;whiteSpace=wrap;" vertex="1" parent="mBunoje7Lh60PfE4Df9u-1">
          <mxGeometry x="60" y="12" width="110" height="26" as="geometry" />
        </mxCell>
        <mxCell id="mBunoje7Lh60PfE4Df9u-3" value="https://www.dinescout.com/restaurant_list" style="strokeWidth=1;shadow=0;dashed=0;align=center;html=1;shape=mxgraph.mockup.containers.anchor;rSize=0;fontSize=17;fontColor=#666666;align=left;" vertex="1" parent="mBunoje7Lh60PfE4Df9u-1">
          <mxGeometry x="130" y="60" width="250" height="26" as="geometry" />
        </mxCell>
        <mxCell id="mBunoje7Lh60PfE4Df9u-4" value="" style="strokeWidth=1;shadow=0;dashed=0;align=center;html=1;shape=mxgraph.mockup.forms.rrect;rSize=0;strokeColor=#999999;fillColor=#ffffff;" vertex="1" parent="mBunoje7Lh60PfE4Df9u-1">
          <mxGeometry x="180" y="110" width="420" height="830" as="geometry" />
        </mxCell>
        <mxCell id="mBunoje7Lh60PfE4Df9u-5" value="&lt;b&gt;Local Restaurants&amp;nbsp;&lt;/b&gt;&lt;div&gt;&lt;b&gt;Near (User Zip or City)&lt;/b&gt;&lt;/div&gt;&lt;div&gt;&lt;b&gt;&lt;br&gt;&lt;/b&gt;&lt;/div&gt;" style="strokeWidth=1;shadow=0;dashed=0;align=center;html=1;shape=mxgraph.mockup.forms.anchor;fontSize=12;fontColor=#666666;align=left;resizeWidth=1;spacingLeft=0;" vertex="1" parent="mBunoje7Lh60PfE4Df9u-4">
          <mxGeometry width="273" height="40" relative="1" as="geometry">
            <mxPoint x="155" y="159" as="offset" />
          </mxGeometry>
        </mxCell>
        <mxCell id="mBunoje7Lh60PfE4Df9u-6" value="" style="strokeWidth=1;shadow=0;dashed=0;align=center;html=1;shape=mxgraph.mockup.forms.rrect;rSize=0;strokeColor=#999999;fontColor=#666666;align=left;spacingLeft=5;resizeWidth=1;" vertex="1" parent="mBunoje7Lh60PfE4Df9u-4">
          <mxGeometry width="315" height="260" relative="1" as="geometry">
            <mxPoint x="54" y="204" as="offset" />
          </mxGeometry>
        </mxCell>
        <mxCell id="mBunoje7Lh60PfE4Df9u-7" value="&lt;span style=&quot;font-size: 16px;&quot;&gt;Restaurant&lt;/span&gt;" style="strokeWidth=1;shadow=0;dashed=0;align=center;html=1;shape=mxgraph.mockup.forms.anchor;fontSize=12;fontColor=#666666;align=left;resizeWidth=1;spacingLeft=0;" vertex="1" parent="mBunoje7Lh60PfE4Df9u-4">
          <mxGeometry width="70" height="20" relative="1" as="geometry">
            <mxPoint x="172" y="315" as="offset" />
          </mxGeometry>
        </mxCell>
        <mxCell id="mBunoje7Lh60PfE4Df9u-8" value="" style="ellipse;whiteSpace=wrap;html=1;aspect=fixed;" vertex="1" parent="mBunoje7Lh60PfE4Df9u-4">
          <mxGeometry x="163.98000000000002" y="63.303030303030305" width="80" height="80" as="geometry" />
        </mxCell>
        <mxCell id="mBunoje7Lh60PfE4Df9u-9" value="Logo" style="text;strokeColor=none;fillColor=none;html=1;fontSize=24;fontStyle=1;verticalAlign=middle;align=center;" vertex="1" parent="mBunoje7Lh60PfE4Df9u-4">
          <mxGeometry x="100" y="80.61" width="210" height="45.39" as="geometry" />
        </mxCell>
        <mxCell id="mBunoje7Lh60PfE4Df9u-10" value="Food-Rev" style="strokeWidth=1;shadow=0;dashed=0;align=center;html=1;shape=mxgraph.mockup.forms.rrect;rSize=5;strokeColor=none;fontColor=#ffffff;fillColor=#66bbff;fontSize=16;fontStyle=1;" vertex="1" parent="mBunoje7Lh60PfE4Df9u-4">
          <mxGeometry x="70" y="420.99999999999994" width="80" height="30" as="geometry" />
        </mxCell>
        <mxCell id="mBunoje7Lh60PfE4Df9u-11" value="Follow" style="strokeWidth=1;shadow=0;dashed=0;align=center;html=1;shape=mxgraph.mockup.forms.rrect;rSize=5;strokeColor=none;fontColor=#ffffff;fillColor=#66bbff;fontSize=16;fontStyle=1;" vertex="1" parent="mBunoje7Lh60PfE4Df9u-4">
          <mxGeometry x="275" y="422.99999999999994" width="80" height="30" as="geometry" />
        </mxCell>
        <mxCell id="mBunoje7Lh60PfE4Df9u-12" value="" style="verticalLabelPosition=bottom;shadow=0;dashed=0;align=center;html=1;verticalAlign=top;strokeWidth=1;shape=mxgraph.mockup.graphics.simpleIcon;strokeColor=#999999;" vertex="1" parent="mBunoje7Lh60PfE4Df9u-4">
          <mxGeometry x="142.5" y="217" width="137.5" height="93" as="geometry" />
        </mxCell>
        <mxCell id="mBunoje7Lh60PfE4Df9u-23" value="&lt;div&gt;&lt;b&gt;Type: Type of restaurant&lt;/b&gt;&lt;/div&gt;&lt;div&gt;&lt;b&gt;Location: Located at this spot&lt;/b&gt;&lt;/div&gt;&lt;div&gt;&lt;b&gt;Hours: The hours for this restaurant are&lt;/b&gt;&lt;/div&gt;&lt;div&gt;&lt;b&gt;Followers: Follower count&lt;/b&gt;&lt;/div&gt;&lt;div&gt;&lt;b&gt;Average Review: 4.5 stars&lt;/b&gt;&lt;/div&gt;" style="strokeWidth=1;shadow=0;dashed=0;align=center;html=1;shape=mxgraph.mockup.forms.anchor;fontSize=12;fontColor=#666666;align=left;resizeWidth=1;spacingLeft=0;perimeterSpacing=5;" vertex="1" parent="mBunoje7Lh60PfE4Df9u-4">
          <mxGeometry x="74.75" y="356" width="273" height="40" as="geometry" />
        </mxCell>
        <mxCell id="mBunoje7Lh60PfE4Df9u-25" value="User Account" style="strokeWidth=1;shadow=0;dashed=0;align=center;html=1;shape=mxgraph.mockup.forms.rrect;rSize=5;strokeColor=none;fontColor=#ffffff;fillColor=#66bbff;fontSize=16;fontStyle=1;" vertex="1" parent="mBunoje7Lh60PfE4Df9u-4">
          <mxGeometry x="290" y="10" width="120" height="30" as="geometry" />
        </mxCell>
        <mxCell id="mBunoje7Lh60PfE4Df9u-28" value="Food" style="strokeWidth=1;shadow=0;dashed=0;align=center;html=1;shape=mxgraph.mockup.forms.rrect;rSize=5;strokeColor=none;fontColor=#ffffff;fillColor=#66bbff;fontSize=16;fontStyle=1;" vertex="1" parent="mBunoje7Lh60PfE4Df9u-4">
          <mxGeometry x="172.25" y="422" width="80" height="30" as="geometry" />
        </mxCell>
        <mxCell id="mBunoje7Lh60PfE4Df9u-35" value="&lt;span style=&quot;font-size: 16px;&quot;&gt;[List Cont.]&lt;/span&gt;" style="strokeWidth=1;shadow=0;dashed=0;align=center;html=1;shape=mxgraph.mockup.forms.anchor;fontSize=12;fontColor=#666666;align=left;resizeWidth=1;spacingLeft=0;" vertex="1" parent="mBunoje7Lh60PfE4Df9u-4">
          <mxGeometry x="183.25" y="778" width="70" height="20" as="geometry" />
        </mxCell>
        <mxCell id="mBunoje7Lh60PfE4Df9u-22" value="DineScout [ Restaurant&amp;nbsp;List Page]" style="text;strokeColor=none;fillColor=none;html=1;fontSize=24;fontStyle=1;verticalAlign=middle;align=center;" vertex="1" parent="1">
          <mxGeometry x="375" y="40" width="100" height="60" as="geometry" />
        </mxCell>
        <mxCell id="mBunoje7Lh60PfE4Df9u-29" value="" style="strokeWidth=1;shadow=0;dashed=0;align=center;html=1;shape=mxgraph.mockup.forms.rrect;rSize=0;strokeColor=#999999;fontColor=#666666;align=left;spacingLeft=5;resizeWidth=1;" vertex="1" parent="1">
          <mxGeometry x="274" y="714" width="315" height="260" as="geometry" />
        </mxCell>
        <mxCell id="mBunoje7Lh60PfE4Df9u-30" value="Food-Rev" style="strokeWidth=1;shadow=0;dashed=0;align=center;html=1;shape=mxgraph.mockup.forms.rrect;rSize=5;strokeColor=none;fontColor=#ffffff;fillColor=#66bbff;fontSize=16;fontStyle=1;" vertex="1" parent="1">
          <mxGeometry x="290" y="931" width="80" height="30" as="geometry" />
        </mxCell>
        <mxCell id="mBunoje7Lh60PfE4Df9u-31" value="Follow" style="strokeWidth=1;shadow=0;dashed=0;align=center;html=1;shape=mxgraph.mockup.forms.rrect;rSize=5;strokeColor=none;fontColor=#ffffff;fillColor=#66bbff;fontSize=16;fontStyle=1;" vertex="1" parent="1">
          <mxGeometry x="495" y="933" width="80" height="30" as="geometry" />
        </mxCell>
        <mxCell id="mBunoje7Lh60PfE4Df9u-32" value="" style="verticalLabelPosition=bottom;shadow=0;dashed=0;align=center;html=1;verticalAlign=top;strokeWidth=1;shape=mxgraph.mockup.graphics.simpleIcon;strokeColor=#999999;" vertex="1" parent="1">
          <mxGeometry x="362.5" y="727" width="137.5" height="93" as="geometry" />
        </mxCell>
        <mxCell id="mBunoje7Lh60PfE4Df9u-33" value="&lt;div&gt;&lt;b&gt;Type: Type of restaurant&lt;/b&gt;&lt;/div&gt;&lt;div&gt;&lt;b&gt;Location: Located at this spot&lt;/b&gt;&lt;/div&gt;&lt;div&gt;&lt;b&gt;Hours: The hours for this restaurant are&lt;/b&gt;&lt;/div&gt;&lt;div&gt;&lt;b&gt;Followers: Follower count&lt;/b&gt;&lt;/div&gt;&lt;div&gt;&lt;b&gt;Average Review: 4.5 stars&lt;/b&gt;&lt;/div&gt;" style="strokeWidth=1;shadow=0;dashed=0;align=center;html=1;shape=mxgraph.mockup.forms.anchor;fontSize=12;fontColor=#666666;align=left;resizeWidth=1;spacingLeft=0;perimeterSpacing=5;" vertex="1" parent="1">
          <mxGeometry x="294.75" y="866" width="273" height="40" as="geometry" />
        </mxCell>
        <mxCell id="mBunoje7Lh60PfE4Df9u-34" value="Food" style="strokeWidth=1;shadow=0;dashed=0;align=center;html=1;shape=mxgraph.mockup.forms.rrect;rSize=5;strokeColor=none;fontColor=#ffffff;fillColor=#66bbff;fontSize=16;fontStyle=1;" vertex="1" parent="1">
          <mxGeometry x="392.25" y="932" width="80" height="30" as="geometry" />
        </mxCell>
        <mxCell id="mBunoje7Lh60PfE4Df9u-36" value="&lt;span style=&quot;font-size: 16px;&quot;&gt;Restaurant&lt;/span&gt;" style="strokeWidth=1;shadow=0;dashed=0;align=center;html=1;shape=mxgraph.mockup.forms.anchor;fontSize=12;fontColor=#666666;align=left;resizeWidth=1;spacingLeft=0;" vertex="1" parent="1">
          <mxGeometry x="389.25" y="827" width="70" height="20" as="geometry" />
        </mxCell>
      </root>
    </mxGraphModel>
  </diagram>
</mxfile>
